<?xml version="1.0" encoding="UTF-8" standalone="no"?>
<svg
   xmlns:dc="http://purl.org/dc/elements/1.1/"
   xmlns:cc="http://creativecommons.org/ns#"
   xmlns:rdf="http://www.w3.org/1999/02/22-rdf-syntax-ns#"
   xmlns:svg="http://www.w3.org/2000/svg"
   xmlns="http://www.w3.org/2000/svg"
   version="1.1"
   id="svg8106"
   viewBox="0 0 1564.65 1564.6501"
   height="1564.65"
   width="1564.65">
  <defs
     id="defs8108" />
  <metadata
     id="metadata8111">
    <rdf:RDF>
      <cc:Work
         rdf:about="">
        <dc:format>image/svg+xml</dc:format>
        <dc:type
           rdf:resource="http://purl.org/dc/dcmitype/StillImage" />
        <dc:title></dc:title>
      </cc:Work>
    </rdf:RDF>
  </metadata>
  <g
     transform="translate(0,512.28784)"
     id="layer1">
    <g
       style="fill:#ffffff;fill-opacity:1"
       transform="translate(-17043.612,-7572.3574)"
       id="g8068">
      <g
         id="g8070"
         transform="matrix(1.3294933,0,0,1.3553925,15425.469,8054.8322)"
         style="fill:#ffffff;fill-opacity:1" />
      <path
         d="m 17594.536,7316.5836 0,455.25 -0.27,0 0,5.379 -133.031,0 0,131.053 133.031,0 0,134.646 0.02,0 c 0,0.551 -0.02,1.097 -0.02,1.649 l 0,50.918 c 0,151.09 119.312,272.728 267.516,272.728 l 61.34,0 c 0.541,0 1.078,-0.02 1.619,-0.02 l 0,0.02 265.898,0 0,-271.08 -0.02,0 c 0,-0.55 0.02,-1.097 0.02,-1.648 l 0,-50.918 c 0,-151.091 -119.313,-272.727 -267.517,-272.727 l -61.34,0 c -0.541,0 -1.077,0.02 -1.617,0.02 l 0,-0.02 -128.772,0 0,-455.25 -136.857,0 z m 137.353,592.873 133.758,0 9.42,0 44.189,0 c 74.102,0 133.758,60.82 133.758,136.365 l 0,38.795 0,9.602 0,136.363 -133.758,0 -9.42,0 -44.189,0 c -74.102,0 -133.758,-60.818 -133.758,-136.363 l 0,-38.795 0,-9.602 0,-136.365 z m -438.277,-849.3862 1064.65,0 c 138.5,0 250,111.5 250,250 l 0,1064.6492 c 0,138.5 -111.5,250 -250,250 l -1064.65,0 c -138.5,0 -250,-111.5 -250,-250 l 0,-1064.6492 c 0,-138.5 111.5,-250 250,-250 z"
         style="opacity:1;fill:#ffffff;fill-opacity:1;stroke:none;stroke-width:0;stroke-linecap:round;stroke-linejoin:round;stroke-miterlimit:4;stroke-dasharray:none;stroke-dashoffset:0;stroke-opacity:1"
         id="path8072" />
      <g
         style="fill:#ffffff;fill-opacity:1"
         transform="matrix(0.71588098,0,0,0.72982674,16203.003,8084.0135)"
         id="g8074" />
    </g>
  </g>
</svg>
